<svg aria-hidden="true" 
  xmlns="http://www.w3.org/2000/svg" 
  xmlns:xlink="http://www.w3.org/1999/xlink" viewBox="0 0 188 140">
  <defs>
    <path d="M0 9c0-5 4-9 9-9h139c5 0 9 4 9 9v95c0 5-4 9-9 9H9c-5 0-9-4-9-9V9z" id="svg-analytics-accuracy--window"></path>
    <filter x="-2.2%" y="-2.2%" width="104.5%" height="106.2%" filterUnits="objectBoundingBox" id="svg-analytics-accuracy--window-shadow">
      <feOffset dy="1" in="SourceAlpha" result="shadowOffsetOuter1"></feOffset>
      <feGaussianBlur stdDeviation="1" in="shadowOffsetOuter1" result="shadowBlurOuter1"></feGaussianBlur>
      <feColorMatrix values="0 0 0 0 0.0549019608 0 0 0 0 0.117647059 0 0 0 0 0.145098039 0 0 0 0.12 0" in="shadowBlurOuter1"></feColorMatrix>
    </filter>
  </defs>
  <g fill="none" fill-rule="evenodd">
    <path d="M149.7 2.4c7.3 1 15.2 2.8 20 9.4 5.1 7.3 4.9 18.3 3.5 28.2-1.4 9.9-3.7 20-1.7 29.5 3.2 14.4 15.9 24 16.5 39a31.2 31.2 0 0 1-13.3 26 36.2 36.2 0 0 1-25.5 5c-34-4.3-60.8-38.8-95.2-39.7-15.9-.4-34 5.8-46-6.1-9.2-9.3-10.3-27.5-4.2-41 10.3-23.3 39.6-37 59-44a181.5 181.5 0 0 1 86.9-6.3" fill="#FFD7D9"></path>
    <g transform="translate(15 13)">
      <use fill="#000" filter="url(#svg-analytics-accuracy--window-shadow)" xlink:href="#svg-analytics-accuracy--window"></use>
      <use fill="#FFF" xlink:href="#svg-analytics-accuracy--window"></use>
    </g>
    <path d="M26.3 22c-1.3 0-2.3-.9-2.3-2s1-2 2.3-2c1.2 0 2.2.9 2.2 2s-1 2-2.3 2zm6.7 0c-1.2 0-2.3-.9-2.3-2s1-2 2.3-2c1.2 0 2.3.9 2.3 2s-1 2-2.3 2zm6.8 0c-1.3 0-2.3-.9-2.3-2s1-2 2.3-2c1.2 0 2.2.9 2.2 2s-1 2-2.3 2z" fill="#E9EBEB"></path>
    <path d="M65.2 17h94.6c1.8 0 3.2 1.6 3.2 3.5 0 2-1.4 3.5-3.2 3.5H65.2c-1.8 0-3.2-1.6-3.2-3.5 0-2 1.4-3.5 3.2-3.5z" fill="#F7FAFB"></path>
    <g fill-rule="nonzero">
      <path d="M26.5 102.3V96l-2 1.4V96l2-1.4h1.4v7.6h-1.4zm5.8.2c-1.5 0-2.7-1-2.7-2.3h1.2c.1.7.7 1.2 1.6 1.2.9 0 1.5-.7 1.5-1.6 0-.9-.6-1.5-1.5-1.5-.7 0-1.2.3-1.5.7h-1.2l.4-4.3h4.7v1h-3.6L31 98c.3-.5 1-.8 1.7-.8 1.5 0 2.5 1.1 2.5 2.6 0 1.6-1.2 2.7-2.9 2.7zm4.6 1.4h-1l.4-2.8h1.3l-.7 2.8zm4.7-1.4c-1.8 0-3-1-3-2.2 0-1 .7-1.8 1.8-2-.9-.3-1.5-1-1.5-1.8 0-1.1 1.2-2 2.7-2 1.6 0 2.7.9 2.7 2 0 .9-.6 1.5-1.4 1.8 1 .2 1.7 1 1.7 2 0 1.3-1.2 2.2-3 2.2zm0-1c1 0 1.6-.6 1.6-1.3 0-.8-.7-1.3-1.6-1.3-.9 0-1.5.5-1.5 1.3 0 .7.6 1.2 1.5 1.2zm0-3.7c.8 0 1.3-.5 1.3-1.1 0-.7-.5-1.1-1.3-1.1s-1.3.4-1.3 1c0 .7.5 1.2 1.3 1.2zm5.6 1.1v-1h1c.8 0 1.3-.5 1.3-1.2s-.5-1.1-1.3-1.1-1.4.5-1.4 1.2h-1.3c0-1.4 1.1-2.3 2.7-2.3 1.5 0 2.6.8 2.6 2 0 1-.6 1.7-1.6 1.8 1.2.1 2 .8 2 2 0 1.3-1.3 2.2-3 2.2s-2.8-1-2.8-2.3h1.3c0 .7.6 1.2 1.5 1.2 1 0 1.5-.5 1.5-1.2 0-.8-.6-1.3-1.5-1.3h-1zm4.8-2c0-1.4 1.1-2.4 2.7-2.4 1.5 0 2.6 1 2.6 2.2 0 .9-.5 1.6-1.5 2.6l-2 1.9h3.6v1.1H52v-.9l2.9-2.8c.8-.9 1-1.3 1-1.9 0-.6-.5-1-1.2-1-.8 0-1.4.5-1.4 1.2H52zm27.4 2v-1h.9c.8 0 1.3-.5 1.3-1.2s-.5-1.1-1.3-1.1-1.3.5-1.4 1.2h-1.3c.1-1.4 1.2-2.3 2.7-2.3 1.5 0 2.6.8 2.6 2 0 1-.6 1.7-1.6 1.8 1.2.1 2 .8 2 2 0 1.3-1.3 2.2-3 2.2s-2.8-1-2.8-2.3h1.3c0 .7.6 1.2 1.5 1.2 1 0 1.5-.5 1.5-1.2 0-.8-.5-1.3-1.5-1.3h-1zm5.6 5h-1l.4-2.8h1.3l-.7 2.8zm1.9-1.6l3.4-6.5h-4v-1.1h5.3v1.1l-3.3 6.5H87zm8.4.2c-1.6 0-2.7-1-2.8-2.3h1.3c0 .7.7 1.2 1.5 1.2 1 0 1.6-.7 1.6-1.6 0-.9-.7-1.5-1.6-1.5-.6 0-1.1.3-1.4.7h-1.3l.4-4.3h4.7v1h-3.6L94 98c.4-.5 1-.8 1.8-.8 1.4 0 2.5 1.1 2.5 2.6 0 1.6-1.2 2.7-2.9 2.7zm6.6 0c-1 0-2-.6-2.5-1.5-.4-.7-.5-1.5-.5-2.4 0-2.6 1.1-4 3-4 1.5 0 2.6.7 2.8 2h-1.4c-.1-.6-.7-1-1.3-1-1.2 0-1.9 1-1.8 3 .3-.8 1.1-1.3 2-1.3 1.5 0 2.6 1 2.6 2.5 0 1.6-1.2 2.7-2.9 2.7zm0-1.1c.9 0 1.6-.7 1.6-1.5 0-1-.7-1.5-1.6-1.5-.8 0-1.5.6-1.5 1.4 0 .9.7 1.6 1.5 1.6zm26.1 1V96l-2 1.4V96l2-1.4h1.4v7.6H128zm3-5.5c0-1.4 1.1-2.4 2.7-2.4 1.5 0 2.6 1 2.6 2.2 0 .9-.5 1.6-1.5 2.6l-2 1.9h3.6v1.1H131v-.9l2.9-2.8c.8-.9 1-1.3 1-1.9 0-.6-.5-1-1.3-1s-1.3.5-1.3 1.2H131zm9.1 5.6c-1.5 0-2.7-1-2.7-2.3h1.2c.1.7.8 1.2 1.6 1.2.9 0 1.5-.7 1.5-1.6 0-.9-.6-1.5-1.5-1.5-.7 0-1.2.3-1.5.7h-1.2l.4-4.3h4.7v1H139l-.2 2.3c.3-.5 1-.8 1.7-.8 1.5 0 2.5 1.1 2.5 2.6 0 1.6-1.1 2.7-2.9 2.7zm8.8-1.3c0 1-.6 1.6-1.6 1.6-1.2 0-1.8-.8-1.8-2s.7-2 1.7-2 1.6.5 1.7 1.3h-.7c-.1-.5-.5-.7-1-.7-.6 0-1 .5-1 1.4 0 .9.4 1.4 1 1.4.7 0 1-.4 1-.9h-.9v-.6h1.6v.5zm2.3 1.5h-1.6V99h1.6c.7 0 1.1.4 1.1 1 0 .3-.3.7-.6.8.5 0 .8.4.8 1s-.5 1-1.3 1zm-1-3.3v1h.7c.5 0 .8 0 .8-.4s-.3-.6-.7-.6h-.8zm0 2.8h.8c.6 0 .8-.2.8-.6 0-.4-.3-.6-.8-.6h-.8v1.2zm-122-54l-.5-1.3h-2l-.5 1.4h-1l2-5.4h1l2 5.4h-1zM26.6 44l-.8 2.3h1.6l-.8-2.3zm3.3 4.4v-4h.9v.6c.2-.5.6-.8 1.3-.8.9 0 1.4.6 1.4 1.6v2.6h-1v-2.4c0-.6-.2-1-.8-1-.5 0-.9.4-.9 1v2.4h-1zm6-.7c.6 0 1-.3 1-.8v-.3h-.9c-.5 0-.8.3-.8.6s.3.5.7.5zm-.2.8c-.8 0-1.4-.5-1.4-1.3 0-.7.6-1.1 1.6-1.2h1v-.4c0-.4-.3-.6-.8-.6-.4 0-.7.1-.8.4h-.8c0-.7.7-1.2 1.7-1.2s1.6.5 1.6 1.4v2.8H37v-.6c-.3.4-.7.7-1.2.7zm3.3-.1v-5.6h.9v5.6h-1zm2.5 1.5h-.4V49h.3c.4 0 .6-.1.7-.5v-.2l-1.4-4h1l1 3 1-3h1l-1.5 4.1c-.3 1-.8 1.4-1.7 1.4zm4.3-6.6h.9v1h.9v.8h-1v2c0 .4.3.6.6.6h.4v.7h-.5c-1 0-1.3-.3-1.3-1.1V45h-.7v-.8h.7v-1zm2.7 5v-4h1v4h-1zm.4-4.6c-.3 0-.5-.3-.5-.5 0-.3.2-.6.5-.6.4 0 .6.3.6.6 0 .2-.2.5-.6.5zm5.2 2h-1c0-.4-.3-.7-.8-.7-.6 0-1 .5-1 1.3 0 .9.4 1.4 1 1.4.5 0 .8-.2.9-.7h.9c-.1.9-.8 1.5-1.8 1.5-1.2 0-2-.8-2-2.2 0-1.3.8-2 2-2 1 0 1.7.5 1.8 1.4zm.8-.2c0-.8.6-1.3 1.6-1.3s1.6.5 1.6 1.2h-.8c-.1-.3-.4-.5-.8-.5s-.7.2-.7.5.1.4.6.5l.7.2c.8.1 1.1.5 1.1 1 0 .8-.7 1.4-1.7 1.4s-1.7-.5-1.7-1.2h.9c0 .3.3.5.8.5s.8-.2.8-.5-.2-.4-.6-.5l-.7-.2c-.8-.1-1.1-.5-1.1-1.1z" fill="#2D3B41"></path>
      <path d="M24.5 84h1.6c.8 0 1.4.5 1.4 1.3s-.6 1.3-1.4 1.3h-1v1.5h-.6V84zm.6.4v1.8h.9c.6 0 1-.4 1-1 0-.5-.4-.8-1-.8h-1zm4 3.3c.6 0 1-.3 1-.7v-.3h-1c-.4 0-.6.2-.6.5 0 .4.3.5.6.5zm0 .5c-.7 0-1.1-.4-1.1-1 0-.5.4-.8 1.1-.9h1V86c0-.4-.3-.6-.8-.6-.4 0-.6.1-.7.4h-.5c0-.5.6-.9 1.2-.9.8 0 1.2.4 1.2 1v2.2h-.4v-.4a1 1 0 0 1-1 .5zm3.6-.6c.6 0 1-.4 1-1 0-.8-.4-1.2-1-1.2-.5 0-.9.4-.9 1.1 0 .7.4 1.1 1 1.1zm0 1.7c-.7 0-1.2-.3-1.3-.8h.6c0 .2.3.4.8.4s.9-.3.9-.7v-.7a1 1 0 0 1-1 .6c-.9 0-1.4-.7-1.4-1.6 0-1 .5-1.6 1.3-1.6.5 0 .9.2 1 .6V85h.6v3.2c0 .7-.6 1.1-1.4 1.1zm3.7-4c-.5 0-.9.4-1 1h1.8c0-.6-.3-1-.8-1zm.8 2h.5c-.1.6-.6.9-1.3.9-.9 0-1.4-.6-1.4-1.6s.5-1.7 1.4-1.7c.8 0 1.4.6 1.4 1.6v.2h-2.3c0 .6.4 1 .9 1 .4 0 .7-.1.8-.4zm3.9-2.3L39.9 88h-.5L38.2 85h.5l1 2.6.8-2.6h.6zm.6 3.1V85h.5V88h-.5zm.3-3.8a.4.4 0 0 1-.4-.3.4.4 0 0 1 .7 0c0 .2-.1.3-.3.3zm2.5 1c-.5 0-.9.4-1 1h1.8c0-.6-.3-1-.8-1zm.8 2h.5c-.2.6-.6.9-1.3.9-1 0-1.5-.6-1.5-1.6s.6-1.7 1.5-1.7c.8 0 1.3.6 1.3 1.6v.2h-2.2c0 .6.3 1 .9 1 .4 0 .7-.1.8-.4zm5.3-2.3l-.9 3.1h-.5l-.7-2.4-.8 2.4h-.5l-.8-3.1h.5l.6 2.5.7-2.5h.5l.7 2.5.7-2.5h.5zm.5.8c0-.5.5-.9 1.2-.9.6 0 1.1.4 1.2.9H53c0-.3-.3-.4-.7-.4-.4 0-.7.1-.7.4 0 .2.2.4.6.5h.4c.6.2 1 .5 1 1s-.6.9-1.3.9c-.7 0-1.2-.4-1.3-.9h.5c.1.3.4.5.8.5s.7-.2.7-.5c0-.2-.2-.4-.5-.5l-.5-.1c-.6-.2-.9-.4-.9-.9zm28.2 2.3h-.5L77.2 84h.6l1.2 3.5 1.3-3.5h.6l-1.6 4.2zm2.2 0V85h.6V88h-.6zm.3-3.8a.4.4 0 0 1-.4-.3.4.4 0 0 1 .8 0c0 .2-.2.3-.4.3zm1.1 1.5c0-.5.5-.9 1.2-.9s1.1.4 1.2.9h-.5c0-.3-.3-.4-.7-.4-.4 0-.7.1-.7.4 0 .2.2.4.6.5h.5c.6.2.9.5.9 1s-.6.9-1.3.9c-.7 0-1.2-.4-1.2-.9h.5c0 .3.3.5.7.5.4 0 .7-.2.7-.5 0-.2-.1-.4-.5-.5l-.5-.1c-.6-.2-.9-.4-.9-.9zm3.3 2.3V85h.5V88h-.5zm.2-3.8a.4.4 0 0 1-.3-.3.4.4 0 0 1 .7 0c0 .2-.2.3-.4.3zm1.4-.1h.5v.8h.7v.4h-.7v1.8c0 .4.2.5.5.5h.2v.4h-.3c-.6 0-.9-.2-.9-.8v-1.9h-.5V85h.5v-.8zm3.2 4c-.8 0-1.4-.6-1.4-1.6s.6-1.7 1.4-1.7c1 0 1.5.6 1.5 1.7 0 1-.6 1.6-1.5 1.6zm0-.5c.6 0 1-.4 1-1.1 0-.8-.4-1.2-1-1.2-.5 0-.9.4-.9 1.2 0 .7.4 1.1 1 1.1zm2.3.4V85h.5v.4c.1-.3.5-.5.9-.5h.2v.5h-.3c-.5 0-.8.3-.8.8v2h-.5zm2.1-2.3c0-.5.5-.9 1.2-.9s1.1.4 1.2.9h-.5c0-.3-.3-.4-.7-.4-.4 0-.7.1-.7.4 0 .2.2.4.6.5h.5c.6.2.9.5.9 1s-.6.9-1.3.9c-.7 0-1.2-.4-1.2-.9h.5c0 .3.3.5.7.5.4 0 .7-.2.7-.5 0-.2-.1-.4-.5-.5l-.5-.1c-.6-.2-.9-.4-.9-.9zm32.3 2.3h-1.6V84h1.6c.8 0 1.2.4 1.2 1 0 .5-.3.9-.7 1 .6 0 1 .5 1 1 0 .8-.6 1.2-1.5 1.2zm-1.1-3.7v1.3h.8c.7 0 1-.2 1-.6 0-.5-.3-.7-.8-.7h-1zm0 3.3h1c.7 0 1-.3 1-.8s-.3-.7-1-.7h-1v1.5zm4.3 0c.5 0 1-.3 1-.7v-.3h-1c-.4 0-.6.2-.6.5 0 .4.3.5.6.5zm0 .5c-.7 0-1.1-.4-1.1-1 0-.5.4-.8 1.1-.9h1V86c0-.4-.3-.6-.8-.6-.4 0-.6.1-.7.4h-.5c0-.5.6-.9 1.2-.9.8 0 1.2.4 1.2 1v2.2h-.5v-.4a1 1 0 0 1-1 .5zm2.4 0V85h.4v.5c.2-.4.5-.6 1-.6.7 0 1.1.4 1.1 1.2v2h-.5v-1.9c0-.6-.2-.8-.7-.8-.5 0-.8.3-.8.9V88h-.5zm4.6 0c-.8 0-1.3-.7-1.3-1.6 0-1 .5-1.7 1.3-1.7.5 0 .8.2 1 .6v-1.8h.6v4.4h-.5v-.5c-.3.4-.6.6-1 .6zm.1-2.8c-.5 0-.9.4-.9 1.2 0 .7.4 1.1 1 1.1.5 0 .9-.4.9-1.1 0-.8-.4-1.2-1-1.2zm6.4-.4l-.9 3.1h-.5l-.7-2.4-.8 2.4h-.5l-.8-3.1h.5l.6 2.5.7-2.5h.5l.7 2.5.7-2.5h.5zm.7 3.1V85h.5V88h-.5zm.2-3.8a.4.4 0 0 1-.3-.3.4.4 0 0 1 .7 0c0 .2-.2.3-.4.3zm2.4 3.9c-.8 0-1.3-.7-1.3-1.6 0-1 .5-1.7 1.3-1.7.5 0 .8.2 1 .6v-1.8h.5v4.4h-.4v-.5c-.3.4-.7.6-1 .6zm.1-2.8c-.5 0-.9.4-.9 1.2 0 .7.4 1.1 1 1.1.5 0 .9-.4.9-1.1 0-.8-.4-1.2-1-1.2zm2.6-1.2h.5v.8h.7v.4h-.7v1.8c0 .4.2.5.5.5h.2v.4h-.3c-.6 0-.9-.2-.9-.8v-1.9h-.5V85h.5v-.8zm2 4v-4.5h.5v1.8c.2-.4.6-.6 1-.6.7 0 1.1.5 1.1 1.2v2h-.5v-1.9c0-.5-.2-.8-.7-.8-.6 0-.9.3-.9.9V88h-.5zM24.5 54.8H26c1.2 0 2 .8 2 2.1s-.8 2.1-2 2.1h-1.5V55zm.6.5v3.2h.9c.9 0 1.4-.6 1.4-1.6s-.5-1.6-1.4-1.6h-1zm4.7 3.3c.5 0 .9-.3.9-.8v-.3l-.9.1c-.4 0-.6.2-.6.5s.2.5.6.5zm-.1.5c-.6 0-1-.4-1-1 0-.5.4-.9 1-.9h1V57c0-.4-.2-.6-.7-.6-.4 0-.7.1-.7.3h-.5c0-.5.5-.8 1.2-.8.8 0 1.2.4 1.2 1v2.2h-.5v-.5a1 1 0 0 1-1 .6zm2.6-4h.5v.8h.7v.4h-.7v1.8c0 .3.2.5.5.5h.2v.4h-.2c-.7 0-1-.2-1-.8v-2h-.5V56h.5V55zm3 3.5c.5 0 .9-.3.9-.8v-.3l-.9.1c-.4 0-.7.2-.7.5s.3.5.7.5zm-.1.5c-.6 0-1-.4-1-1 0-.5.3-.9 1-.9h1V57c0-.4-.3-.6-.7-.6-.4 0-.7.1-.7.3h-.6c.1-.5.6-.8 1.3-.8.8 0 1.2.4 1.2 1v2.2h-.5v-.5a1 1 0 0 1-1 .6zm4.3 0v-2.8H39V56h.5v-.4c0-.6.3-1 1-1l.3.1v.4h-.3c-.3 0-.5.2-.5.5v.4h.7v.4H40V59h-.5zm2 0V56h.5v.4c0-.3.5-.5.9-.5h.2v.5h-.3c-.5 0-.8.3-.8.8v2h-.5zm3.5 0c-1 0-1.5-.7-1.5-1.7S44.1 56 45 56s1.4.6 1.4 1.6-.5 1.7-1.4 1.7zm0-.5c.6 0 .9-.4.9-1.2 0-.7-.3-1.1-1-1.1-.5 0-.9.4-.9 1.1 0 .8.4 1.2 1 1.2zm2.2.4V56h.5v.5c.2-.4.5-.6 1-.6.3 0 .6.2.8.6a1 1 0 0 1 1-.6c.6 0 1 .4 1 1v2.2H51v-2c0-.5-.2-.7-.7-.7-.4 0-.7.3-.7.7v2h-.5V57c0-.4-.3-.6-.7-.6-.4 0-.7.3-.7.8v2h-.5zm7.1-4h.5v.9h.7v.4h-.7v1.8c0 .3.2.5.5.5h.2v.4h-.3c-.6 0-.9-.2-.9-.8v-2h-.5V56h.5V55zm2 4v-4.4h.5v1.8c.2-.4.6-.6 1-.6.7 0 1.1.4 1.1 1.2v2h-.5v-2c0-.5-.2-.7-.7-.7-.6 0-.9.3-.9.8v2h-.5zm4.8-2.7c-.5 0-.9.3-.9.9H62c0-.6-.3-1-.8-1zm.8 1.9h.5c-.1.5-.6.9-1.3.9-.9 0-1.4-.7-1.4-1.7S60.2 56 61 56c.9 0 1.4.6 1.4 1.6v.2h-2.3c0 .6.4 1 1 1 .3 0 .6-.1.7-.4zm4.6-2.4c.8 0 1.3.6 1.3 1.6s-.5 1.7-1.3 1.7c-.5 0-.8-.2-1-.6v1.6H65V56h.4v.5c.3-.4.7-.6 1-.6zm-.1 2.8c.6 0 .9-.4.9-1.2 0-.7-.3-1.1-1-1.1-.5 0-.9.4-.9 1.1 0 .8.4 1.2 1 1.2zm3.2 0c.5 0 .9-.3.9-.8v-.3l-.9.1c-.4 0-.7.2-.7.5s.3.5.7.5zm-.1.5c-.6 0-1-.4-1-1 0-.5.3-.9 1-.9h1V57c0-.4-.3-.6-.7-.6-.4 0-.7.1-.7.3h-.6c.1-.5.6-.8 1.3-.8.8 0 1.2.4 1.2 1v2.2h-.5v-.5a1 1 0 0 1-1 .6zm2.3-2.4c0-.5.5-.9 1.2-.9s1.1.3 1.2.9h-.5c0-.3-.3-.5-.7-.5-.4 0-.7.2-.7.5 0 .2.2.4.6.4l.5.2c.6.1.9.4.9.8 0 .6-.6 1-1.3 1-.7 0-1.2-.4-1.2-.9h.5c0 .3.3.4.7.4.4 0 .7-.2.7-.4 0-.3-.1-.4-.5-.5l-.5-.1c-.6-.2-.9-.4-.9-.9zm3.4-1.7h.5v.9h.7v.4h-.7v1.8c0 .3.2.5.5.5h.2v.4h-.3c-.6 0-.9-.2-.9-.8v-2h-.5V56h.5V55zm4.5 2v-.4h.6c.4 0 .8-.3.8-.7 0-.5-.3-.7-.8-.7s-.8.2-.9.7H79c0-.8.6-1.2 1.4-1.2.7 0 1.3.5 1.3 1.1 0 .5-.3.9-.7 1 .5.1.9.5.9 1 0 .8-.7 1.3-1.5 1.3s-1.4-.5-1.5-1.2h.5c0 .5.5.7 1 .7.6 0 1-.3 1-.7 0-.5-.4-.8-1-.8h-.6zm4.4 2.1c-1 0-1.5-.8-1.5-2.2 0-1.4.5-2.2 1.5-2.2.9 0 1.4.8 1.4 2.2 0 1.4-.5 2.2-1.4 2.2zm0-.5c.6 0 1-.6 1-1.7s-.4-1.7-1-1.7c-.7 0-1 .6-1 1.7s.3 1.7 1 1.7zm5.2.5c-.8 0-1.4-.7-1.4-1.7s.6-1.6 1.4-1.6c.4 0 .8.2 1 .6v-1.8h.5v4.4h-.5v-.5c-.2.4-.6.6-1 .6zm0-2.8c-.5 0-.8.4-.8 1.1 0 .8.3 1.2.9 1.2.6 0 1-.4 1-1.2 0-.7-.4-1.1-1-1.1zm3.5 2.3c.5 0 .9-.3.9-.8v-.3l-.9.1c-.5 0-.7.2-.7.5s.3.5.7.5zm-.1.5c-.6 0-1.1-.4-1.1-1 0-.5.4-.9 1.1-.9h1V57c0-.4-.3-.6-.8-.6-.3 0-.6.1-.7.3h-.5c0-.5.6-.8 1.3-.8.7 0 1.2.4 1.2 1v2.2h-.5v-.5a1 1 0 0 1-1 .6zm2.5 1H95v-.4h.2c.3 0 .5-.1.6-.5v-.2L94.8 56h.5l1 2.6.8-2.6h.6l-1.3 3.3c-.2.7-.5 1-1 1zm2.9-3.4c0-.5.5-.9 1.1-.9.7 0 1.2.3 1.2.9h-.5c0-.3-.3-.5-.7-.5-.3 0-.6.2-.6.5 0 .2.1.4.5.4l.5.2c.6.1.9.4.9.8 0 .6-.6 1-1.3 1-.7 0-1.2-.4-1.2-.9h.5c0 .3.3.4.7.4.5 0 .8-.2.8-.4 0-.3-.2-.4-.5-.5l-.6-.1c-.6-.2-.8-.4-.8-.9zm6.2 2.4c-1 0-1.5-.7-1.5-1.7s.6-1.6 1.5-1.6 1.4.6 1.4 1.6-.5 1.7-1.4 1.7zm0-.5c.6 0 .9-.4.9-1.2 0-.7-.3-1.1-1-1.1-.5 0-.9.4-.9 1.1 0 .8.4 1.2 1 1.2zm2.4.4v-2.7h-.5V56h.5v-.4c0-.6.3-1 1-1l.3.1v.4h-.3c-.3 0-.5.2-.5.5v.4h.7v.4h-.7V59h-.5zm3.9-4h.5v.9h.7v.4h-.7v1.8c0 .3.1.5.4.5h.3v.4h-.3c-.7 0-1-.2-1-.8v-2h-.4V56h.5V55zm2 4v-4.4h.5v1.8c.2-.4.5-.6 1-.6.7 0 1 .4 1 1.2v2h-.4v-2c0-.5-.3-.7-.8-.7s-.8.3-.8.8v2h-.5zm4.8-2.7c-.5 0-.9.3-1 .9h1.8c0-.6-.3-1-.8-1zm.8 1.9h.5c-.2.5-.6.9-1.3.9-1 0-1.5-.7-1.5-1.7s.6-1.6 1.5-1.6c.8 0 1.3.6 1.3 1.6v.2h-2.2c0 .6.3 1 .9 1 .4 0 .7-.1.8-.4zm3-1.5c0-.5.4-.9 1.1-.9.7 0 1.1.3 1.2.9h-.5c0-.3-.3-.5-.7-.5-.4 0-.7.2-.7.5 0 .2.2.4.6.4l.5.2c.6.1.9.4.9.8 0 .6-.6 1-1.3 1-.7 0-1.2-.4-1.2-.9h.5c0 .3.3.4.7.4.4 0 .7-.2.7-.4 0-.3-.1-.4-.5-.5l-.5-.1c-.6-.2-.9-.4-.9-.9zm3.2 2.3V56h.5V59h-.5zm.2-3.8a.4.4 0 0 1-.3-.3.4.4 0 0 1 .7 0c0 .2-.2.3-.4.3zm1.4-.2h.5v.9h.7v.4h-.7v1.8c0 .3.2.5.5.5h.2v.4h-.3c-.6 0-.9-.2-.9-.8v-2h-.5V56h.5V55zm3.2 1.3c-.5 0-.8.3-.9.9h1.8c0-.6-.4-1-.9-1zm.8 1.9h.5c-.1.5-.6.9-1.3.9-.9 0-1.4-.7-1.4-1.7s.6-1.6 1.4-1.6c.9 0 1.4.6 1.4 1.6v.2h-2.3c0 .6.4 1 1 1 .3 0 .6-.1.7-.4zm1.4.8V56h.5v.5c.2-.4.5-.6 1-.6.7 0 1 .4 1 1.2v2h-.4v-2c0-.5-.3-.7-.8-.7s-.8.3-.8.8v2h-.5zm4.4-.4c.6 0 1-.3 1-.8v-.3l-.9.1c-.5 0-.7.2-.7.5s.3.5.6.5zm0 .5c-.7 0-1.1-.4-1.1-1 0-.5.4-.9 1.1-.9h1V57c0-.4-.3-.6-.8-.6-.3 0-.6.1-.7.3h-.5c0-.5.6-.8 1.3-.8.7 0 1.1.4 1.1 1v2.2h-.4v-.5a1 1 0 0 1-1 .6zm2.4 0V56h.5v.5c.2-.4.5-.6.9-.6s.7.2.9.6a1 1 0 0 1 1-.6c.6 0 1 .4 1 1v2.2h-.5v-2c0-.5-.2-.7-.7-.7-.4 0-.7.3-.7.7v2h-.5V57c0-.4-.3-.6-.7-.6-.4 0-.7.3-.7.8v2h-.5zm6.5-2.8c-.6 0-.9.3-1 .9h1.8c0-.6-.3-1-.8-1zm.8 1.9h.5c-.2.5-.7.9-1.3.9-1 0-1.5-.7-1.5-1.7s.6-1.6 1.5-1.6c.8 0 1.3.6 1.3 1.6v.2h-2.2c0 .6.3 1 .9 1 .4 0 .7-.1.8-.4zm1.6 1.9h-.3l.2-1.7h.6l-.5 1.7zM24.4 66c0-.6.5-1 1.2-1 .6 0 1.1.4 1.2.9h-.5c-.1-.3-.3-.4-.7-.4-.4 0-.7.2-.7.4 0 .3.2.4.6.5h.4c.6.2 1 .5 1 1s-.6.9-1.3.9c-.7 0-1.2-.3-1.3-.9h.5c.1.3.4.5.8.5s.7-.2.7-.5c0-.2-.2-.4-.5-.5h-.5c-.6-.2-.9-.5-.9-1zm3.4-1.7h.5v.8h.7v.4h-.7v1.8c0 .4.1.5.5.5h.2v.4h-.3c-.6 0-1-.2-1-.8v-1.9h-.4v-.4h.5v-.8zm3 3.6c.4 0 .8-.4.8-.8v-.3h-.8c-.5 0-.7.2-.7.5 0 .4.3.6.6.6zm-.2.4c-.6 0-1-.4-1-1 0-.5.4-.8 1.1-.9h1v-.3c0-.4-.3-.6-.8-.6-.4 0-.6.1-.7.4h-.5c0-.5.6-.9 1.2-.9.8 0 1.2.4 1.2 1v2.2h-.4V68a1 1 0 0 1-1 .5zm2.5 0v-3.2h.4v.5c.2-.3.5-.6 1-.6h.2v.6h-.3c-.5 0-.8.2-.8.7v2H33zm2.6-4h.5v.8h.7v.4h-.7v1.8c0 .4.2.5.5.5h.2v.4h-.3c-.6 0-.9-.2-.9-.8v-1.9h-.5v-.4h.5v-.8zm2 4v-3.2h.5v3.1h-.5zm.3-3.8a.4.4 0 0 1-.4-.4.4.4 0 0 1 .7 0c0 .2-.1.4-.3.4zm1.2 3.7v-3.1h.5v.5c.2-.4.5-.6 1-.6.7 0 1 .5 1 1.2v2h-.5v-1.9c0-.5-.2-.8-.7-.8-.5 0-.8.3-.8.9v1.8h-.5zm4.7-.4c.6 0 1-.5 1-1.2s-.4-1.1-1-1.1c-.5 0-.9.4-.9 1.1 0 .7.4 1.2 1 1.2zm0 1.6c-.7 0-1.2-.3-1.3-.8h.6c0 .2.3.4.8.4s.9-.3.9-.7v-.6a1 1 0 0 1-1 .5c-.9 0-1.4-.6-1.4-1.6s.5-1.6 1.3-1.6c.5 0 .9.3 1 .6v-.5h.6v3.2c0 .7-.6 1.1-1.4 1.1zm4.4 0H48V69h.2c.3 0 .4 0 .5-.5l.1-.2-1.2-3.1h.6l.8 2.6 1-2.6h.5l-1.2 3.3c-.3.8-.6 1-1.1 1zm4.1-4c-.5 0-.9.5-.9 1h1.7c0-.5-.3-1-.8-1zm.8 2h.5c-.1.6-.6.9-1.3.9-.9 0-1.4-.6-1.4-1.6s.5-1.7 1.4-1.7c.9 0 1.4.6 1.4 1.6v.2h-2.3c0 .7.4 1 1 1 .3 0 .6-.1.7-.4zm1.3-1.4c0-.6.5-1 1.2-1 .6 0 1 .4 1.2.9h-.5c-.1-.3-.4-.4-.7-.4-.4 0-.7.2-.7.4 0 .3.2.4.5.5h.5c.6.2 1 .5 1 1s-.6.9-1.4.9c-.7 0-1.1-.3-1.2-.9h.5c.1.3.4.5.8.5s.7-.2.7-.5c0-.2-.2-.4-.5-.5h-.5c-.6-.2-1-.5-1-1zm3.4-1.7h.5v.8h.7v.4h-.7v1.8c0 .4.1.5.5.5h.2v.4h-.3c-.7 0-1-.2-1-.8v-1.9h-.4v-.4h.5v-.8zm3.2 1.2c-.5 0-.9.4-1 1H62c0-.6-.3-1-.8-1zm.8 2h.5c-.2.5-.6.8-1.3.8-.9 0-1.5-.6-1.5-1.6s.6-1.7 1.5-1.7c.8 0 1.3.6 1.3 1.6v.2h-2.2c0 .7.3 1 .9 1 .4 0 .7-.1.8-.4zm1.3.7v-3.1h.5v.5c.1-.3.5-.6 1-.6h.2v.6h-.3c-.5 0-.9.2-.9.7v2h-.5zm3.4.1c-.8 0-1.3-.6-1.3-1.6s.5-1.7 1.3-1.7c.4 0 .8.2 1 .6v-1.8h.5v4.4h-.5v-.5c-.2.4-.6.6-1 .6zm.1-2.8c-.6 0-1 .4-1 1.2 0 .7.4 1.1 1 1.1s1-.4 1-1.1c0-.8-.4-1.2-1-1.2zm3.4 2.4c.5 0 .9-.4.9-.8v-.3H70c-.5 0-.7.2-.7.5 0 .4.3.6.7.6zm-.1.4c-.6 0-1-.4-1-1 0-.5.3-.8 1-.9h1v-.3c0-.4-.3-.6-.7-.6-.4 0-.7.1-.7.4H69c.1-.5.6-.9 1.3-.9.7 0 1.2.4 1.2 1v2.2H71V68a1 1 0 0 1-1 .5zm2.6 1h-.3V69h.2c.3 0 .5 0 .6-.5v-.2l-1-3.1h.5l.8 2.6 1-2.6h.5l-1.3 3.3c-.2.8-.5 1-1 1zm3-1a.4.4 0 0 1-.5-.4.4.4 0 0 1 .8 0c0 .2-.2.4-.4.4z" fill="#7D8589"></path>
    </g>
  </g>
</svg>
