<svg aria-hidden="true" width="188" height="139" 
  xmlns="http://www.w3.org/2000/svg" 
  xmlns:xlink="http://www.w3.org/1999/xlink">
  <defs>
    <path d="M0 9c0-5 4-9 9-9h139c5 0 9 4 9 9v95c0 5-4 9-9 9H9c-5 0-9-4-9-9V9z" id="svg-analytics-data--window"></path>
    <filter x="-2.2%" y="-2.2%" width="104.5%" height="106.2%" filterUnits="objectBoundingBox" id="svg-analytics-data--window-shadow">
      <feOffset dy="1" in="SourceAlpha" result="shadowOffsetOuter1"></feOffset>
      <feGaussianBlur stdDeviation="1" in="shadowOffsetOuter1" result="shadowBlurOuter1"></feGaussianBlur>
      <feColorMatrix values="0 0 0 0 0.0549019608 0 0 0 0 0.117647059 0 0 0 0 0.145098039 0 0 0 0.12 0" in="shadowBlurOuter1"></feColorMatrix>
    </filter>
    <linearGradient x1="50%" y1="0%" x2="50%" y2="102%" id="svg-analytics-data--window-gradient">
      <stop stop-color="#FB6D77" offset="0%"></stop>
      <stop stop-color="#FB6D77" stop-opacity="0" offset="48%"></stop>
      <stop stop-color="#FB6D77" offset="66.6%"></stop>
      <stop stop-color="#FB6D77" stop-opacity="0" offset="100%"></stop>
    </linearGradient>
  </defs>
  <g fill="none" fill-rule="evenodd">
    <path d="M38.3 2.4c-7.3 1-15.2 2.7-20 9.3-5.1 7.2-4.9 18.2-3.5 28 1.4 9.8 3.7 20 1.7 29.3C13.3 83.3.6 92.8 0 107.7a31 31 0 0 0 13.3 25.8 36.4 36.4 0 0 0 25.5 5.1c34-4.4 60.8-38.6 95.2-39.5 15.9-.4 34 5.7 46-6 9.2-9.3 10.3-27.4 4.2-40.8-10.3-23-39.6-36.7-59-43.6a182.8 182.8 0 0 0-86.9-6.3" fill="#FFD7D9"></path>
    <g transform="translate(16 13)">
      <use fill="#000" filter="url(#svg-analytics-data--window-shadow)" xlink:href="#svg-analytics-data--window"></use>
      <use fill="#FFF" xlink:href="#svg-analytics-data--window"></use>
    </g>
    <path d="M63.1 82.9H164v.6H63.1v-.6zm0-10.2H164v.6H63.1v-.6zm0-10.2H164v.6H63.1v-.6zm0-10.2H164v.6H63.1v-.6zm0-10.1H164v.5H63.1v-.5zM164 113.4v.6H63.1v-.6H164zm0-10.1v.5H63.1v-.5H164zm0-10.2v.5H63.1v-.5H164zM27.2 21.5c-1.2 0-2.2-1-2.2-2.2 0-1.3 1-2.3 2.2-2.3 1.3 0 2.3 1 2.3 2.3 0 1.2-1 2.2-2.3 2.2zm6.8 0c-1.3 0-2.3-1-2.3-2.2 0-1.3 1-2.3 2.3-2.3 1.2 0 2.2 1 2.2 2.3 0 1.2-1 2.2-2.2 2.2zm6.7 0c-1.2 0-2.2-1-2.2-2.2 0-1.3 1-2.3 2.2-2.3 1.2 0 2.2 1 2.2 2.3 0 1.2-1 2.2-2.2 2.2z" fill="#E9EBEB"></path>
    <path d="M148 91.8V109H47V88.6l2.3 13 3 6.4 3.7-5.6 4.3-3.6 3.2-6.5 5.9-2.3 5 5.9 6.1-5.5 5 9.2 6.6 5.5 8.3-3.5 6 7.2 6.6-3.7 3.5-9.8 7 3.5 4.3-7 4.5-6.6 7.4 5.7 8.3 1zM47 38.7l8.3-1 7.4-4.7 4.5 5.6 4.3 7.4 7-3.7L82 52.5l6.6 3.8 6-7.5 8.3 3.7 6.6-5.7 5-9.6 6 5.7 5.1-6 6 2.3 3 6.8 4.4 3.7 3.7 5.8 3-6.7 2.3-13.5v34H47V38.7z" fill="url(#svg-analytics-data--window-gradient)" fill-rule="nonzero" opacity=".2" transform="translate(16 13)"></path>
    <path d="M136.5 54.6L141 49c.2-.2.5-.2.7-.1l5.9 2.3.3.3 3 6.7 4.3 3.7.1.1 3 4.9L161 61l2-12.9a.5.5 0 0 1 1 .2l-2 13v.1l-3 6.8c-.2.4-.8.4-1 0l-3.6-5.6-4.3-3.7-.1-.2-3-6.6-5.4-2.2-4.5 5.6a.5.5 0 0 1-1 .2l-5.6-4.9-4.5 8.4v.2l-6.7 6c-.2.2-.4.2-.6.1L111 62l-5.6 7c-.1.1-.4.2-.6 0l-6.8-3.4a.5.5 0 0 1-.2-.3l-3.2-9.6L88 59c-.3.1-.6 0-.7-.2l-4.2-7-4.1-5.6-6.9 4.7-.2.1-8.3 1a.5.5 0 1 1-.1-1.2l8.1-.8 7.2-5c.3-.2.6-.1.8.1l4.4 6 4 6.7 6.6-3.5c.3-.1.7 0 .8.3l3.2 10 6.2 3.2 5.5-7c.2-.1.5-.2.7 0l7.8 3.6 6.3-5.8 4.8-9c.1-.2.6-.3.8 0l5.8 5zm-46 52.9l5.8-5c.2-.2.7-.2.8.1l4.8 9 6.3 5.7 7.8-3.6c.2-.1.5 0 .7.1l5.5 7 6.2-3.2 3.2-10c.1-.3.5-.5.8-.3l6.6 3.4 4-6.6 4.4-6c.2-.3.5-.3.8-.1l7.2 5 8.1.8a.5.5 0 1 1-.1 1.1l-8.3-.9h-.2l-6.9-4.8-4.1 5.5-4.2 7c-.1.3-.4.4-.7.2l-6.5-3.4-3.2 9.7-.2.3-6.8 3.4c-.2.2-.5.1-.6-.1l-5.6-7-7.8 3.7-.6-.1-6.6-6-.1-.2-4.5-8.4-5.7 5a.5.5 0 0 1-.9-.3l-4.5-5.6L80 105l-3 6.6-.1.2-4.3 3.8-3.6 5.6c-.2.4-.8.3-1 0l-3-6.8v-.2l-2-13a.5.5 0 0 1 1-.1l2 12.9 2.6 5.7 3-4.8.2-.1L76 111l3-6.7.3-.3 6-2.4c.1 0 .4 0 .6.2l4.5 5.6z" fill="#FB6D77" fill-rule="nonzero"></path>
    <path d="M66.3 17h94.5c1.8 0 3.2 1.5 3.2 3.4s-1.4 3.4-3.2 3.4H66.3c-1.8 0-3.2-1.5-3.2-3.4s1.4-3.4 3.2-3.4zM28.2 42h25c1.8 0 3.2 1.5 3.2 3.4 0 1.8-1.4 3.4-3.2 3.4h-25c-1.8 0-3.2-1.6-3.2-3.4 0-2 1.4-3.4 3.2-3.4zm0 9h25c1.8 0 3.2 1.6 3.2 3.4 0 2-1.4 3.4-3.2 3.4h-25c-1.8 0-3.2-1.5-3.2-3.4 0-1.8 1.4-3.4 3.2-3.4zm0 9.1h25c1.8 0 3.2 1.5 3.2 3.4S55 67 53.2 67h-25c-1.8 0-3.2-1.5-3.2-3.4s1.4-3.4 3.2-3.4zm0 9h25c1.8 0 3.2 1.6 3.2 3.5S55 76 53.2 76h-25c-1.8 0-3.2-1.5-3.2-3.4s1.4-3.4 3.2-3.4z" fill="#F7FAFB"></path>
  </g>
</svg>
